<?xml version="1.0" encoding="utf-8"?><!-- Uploaded to: SVG Repo, www.svgrepo.com, Generator: SVG Repo Mixer Tools -->
<svg fill="#000000" width="800px" height="800px" viewBox="0 0 24 24" id="edit-alt-5" data-name="Flat Color" xmlns="http://www.w3.org/2000/svg" class="icon flat-color"><path id="secondary" d="M20.71,3.29a4,4,0,0,0-5.66,0L12.58,5.76a1,1,0,0,0,0,1.42l4.24,4.24a1,1,0,0,0,1.42,0L20.71,9A4,4,0,0,0,20.71,3.29Z" style="fill: rgb(44, 169, 188);"></path><path id="primary" d="M15.42,12.82,11.18,8.58a1,1,0,0,0-1.42,0L2.29,16.05a1,1,0,0,0-.29.71V21a1,1,0,0,0,1,1H7.24A1,1,0,0,0,8,21.71l7.47-7.47A1,1,0,0,0,15.42,12.82Z" style="fill: rgb(0, 0, 0);"></path></svg>